<svg xmlns="http://www.w3.org/2000/svg" viewBox="0 0 120 20.95"><defs><style>.cls-1{fill:#fff;fill-rule:evenodd;}</style></defs><g id="Camada_2" data-name="Camada 2"><g id="Camada_2-2" data-name="Camada 2"><g id="Camada_2-3" data-name="Camada 2"><g id="Rodapé"><path class="cls-1" d="M20.5,12.65V7.57h5.21v.87h-4V9.57H24v.86H21.69v1.26h4.06v1ZM120,8.71a1.51,1.51,0,0,1-1.57,1.44,1.47,1.47,0,0,1-.95-.39,1.43,1.43,0,0,1-.43-1,1.5,1.5,0,1,1,3,0Zm-.33,0a1.08,1.08,0,0,0-.33-.81,1.11,1.11,0,0,0-1.59,0l0,0a1.05,1.05,0,0,0-.34.81,1.15,1.15,0,0,0,2,.83h0A1.09,1.09,0,0,0,119.62,8.71Zm-.32.7-.55-.64a.61.61,0,0,0,.24-.15.44.44,0,0,0,.09-.27.46.46,0,0,0,0-.2.37.37,0,0,0-.15-.13.33.33,0,0,0-.19-.06h-.8v1.5h.36V8.92h.14l.45.54Zm-.63-1a.08.08,0,0,0-.09-.12h-.34v.41h.24l.11-.05a.13.13,0,0,0,.06-.07V8.44ZM27.46,9.47a1.06,1.06,0,0,1,.22-.75,1.25,1.25,0,0,1,.84-.23h3.22a1.25,1.25,0,0,1,.86.21,1,1,0,0,1,.22.75v2.18a1,1,0,0,1-.23.75,1.29,1.29,0,0,1-.85.22h-.5l.55,1.06h-1l-.48-1.06H28.52a1.25,1.25,0,0,1-.86-.21,1,1,0,0,1-.22-.75V9.47Zm1,2.38H30L29.54,11l.75-.28.58,1.17h1V9.25H28.47ZM35.6,8.49v3.38h2.89V8.49h1v3.17a1,1,0,0,1-.23.75,1.25,1.25,0,0,1-.86.21H35.67a1.27,1.27,0,0,1-.85-.2,1.07,1.07,0,0,1-.23-.75V8.49Zm5.77,4.16V8.49h1v4.16Zm2.86,0V8.49H48a1.18,1.18,0,0,1,.75.19A.73.73,0,0,1,49,9.3v.91a.74.74,0,0,1-.23.63A1.24,1.24,0,0,1,48,11H45.23v1.62ZM47.55,9.2H45.23v1.1h2.32a.57.57,0,0,0,.36-.07A.31.31,0,0,0,48,10V9.54a.32.32,0,0,0-.1-.26A.66.66,0,0,0,47.55,9.2Zm2.86,3.45V8.49h4.46v.75H51.43v.89h2v.71h-2v1h3.49v.75Zm7.51-1h1.5a3,3,0,0,0,1.72-.38,1.44,1.44,0,0,0,.51-1.25,1.51,1.51,0,0,0-.42-1.18A1.79,1.79,0,0,0,60,8.48h-2.1v3.21Zm-1.19,1V7.57H60a3.15,3.15,0,0,1,2.15.66,2.31,2.31,0,0,1,.75,1.85,2.73,2.73,0,0,1-.29,1.28,2.32,2.32,0,0,1-.83.9,2.94,2.94,0,0,1-.83.3,8.69,8.69,0,0,1-1.26.09Zm8,0V8.49h1v4.16Zm7-3.4H68.49v2.6h3.17V11H70v-.76h2.65v1.44a1.07,1.07,0,0,1-.23.75,1.33,1.33,0,0,1-.85.2h-3a1.33,1.33,0,0,1-.85-.2,1.07,1.07,0,0,1-.23-.75V9.47a1.07,1.07,0,0,1,.23-.75,1.28,1.28,0,0,1,.85-.21h3a1.32,1.32,0,0,1,.84.2.92.92,0,0,1,.24.75v.12l-1,.16V9.3Zm2.72,3.4V8.49h1v4.16ZM79.7,9.23v3.42h-1V9.23h-2V8.48h5v.75Zm2,3.42h1l.53-.92H86l.53.92h1.14L85.12,8.49h-1Zm2-1.68.93-1.73,1,1.73Zm5,1.68V8.49h1v3.38H93v.75Zm6.47-1.5h.18a.22.22,0,0,1,.18.07.58.58,0,0,1,0,.29v.79a.61.61,0,0,1,0,.3c0,.05-.16.07-.36.07h-.88a.18.18,0,0,1-.18-.08A.49.49,0,0,1,94,12.3v-.82a.58.58,0,0,1,.06-.29s.15-.07.36-.07ZM101,9.28H98.32v2.59h2.73V11l1,.21v.48a1,1,0,0,1-.22.75,1.28,1.28,0,0,1-.87.21H98.39a1.3,1.3,0,0,1-.86-.2,1.07,1.07,0,0,1-.23-.75V9.47a1,1,0,0,1,.22-.75,1.33,1.33,0,0,1,.87-.21H101a1.33,1.33,0,0,1,.87.21,1,1,0,0,1,.22.75v.4l-1,.15V9.27Zm3.6,2.59H108V9.25h-3.33v2.6Zm-1-2.38a1,1,0,0,1,.21-.75,1.33,1.33,0,0,1,.87-.21h3.21a1.31,1.31,0,0,1,.86.21,1,1,0,0,1,.22.75v2.2a1.09,1.09,0,0,1-.22.75,1.36,1.36,0,0,1-.86.2h-3.21a1.39,1.39,0,0,1-.87-.2,1.08,1.08,0,0,1-.21-.75V9.49Zm7.13,3.18V8.49h.81l2,2.47,2-2.47h.82v4.16h-.94V9.76l-1.86,2.36h-.2l-1.88-2.3v2.8Z"/><path class="cls-1" d="M11.18,8.6l5.2,5.25-5.2,5.26ZM8.68,4.17,7.11,2.6,3,6.75l5.73,5.74v4.85L0,8.67,8.68,0ZM10.37,21l8.68-8.68L10.37,3.6ZM8.68,9.53V5.37L6.6,7.45Z"/></g></g></g></g></svg>