<svg xmlns="http://www.w3.org/2000/svg" viewBox="0 0 37.92 52.1"><defs><style>.cls-1{fill:#fff;}</style></defs><g id="Camada_2" data-name="Camada 2"><g id="Camada_2-2" data-name="Camada 2"><path class="cls-1" d="M13,39.77H0v-.91l1,0a12.9,12.9,0,0,0,1.39-.19,3,3,0,0,0,2.8-2.71,14,14,0,0,0,.17-2.74V6.57a14.47,14.47,0,0,0-.16-2.63c-.37-1.89-1.09-2.6-3-2.88A12.31,12.31,0,0,0,0,.93V0H1.07c5.51,0,11,0,16.53,0a24.63,24.63,0,0,1,8.13,1.16A9.26,9.26,0,0,1,32,12.24c-.88,3.35-3.37,4.46-6.77,2.15a2.7,2.7,0,0,1-.38-.35l.3-.31c2.7-2.69,1.72-8.41-2.66-10.55-3.4-1.66-6.93-1.59-10.53-.91l-.62.11c0,1.19,0,3.15,0,4.33q0,12.92,0,25.83A13.16,13.16,0,0,0,13,39.77Z"/><path class="cls-1" d="M30.2,52.07c1.94-1.59,3.12-3.35,2.43-5.86a5.55,5.55,0,0,0-2-2.74A32.75,32.75,0,0,0,25.27,40c-2.15-1.16-4.28-2.35-6.38-3.61-5.37-3.22-6.3-8.2-5-12.33,1.36-4.46,6.23-7.52,11.43-7.33a32.37,32.37,0,0,1,7.27,1.54c.55.15,1.09.32,1.65.44,1.28.29,1.77,0,2.15-1.19a6.29,6.29,0,0,0,.19-.69h1.26c0,3.75,0,9.35,0,13.09H36.54a8.32,8.32,0,0,0-.17-.84c-.17-.71-.34-1.41-.5-2.12-1.37-6-7.62-8.21-12.31-7.25-2.67.55-4.67,2-5.19,4.82s1,5,3.27,6.43c3,2,6.21,3.75,9.32,5.62a20,20,0,0,1,4.75,3.57,7.93,7.93,0,0,1,2.12,6.66C37.32,50.25,34.21,52.4,30.2,52.07Z"/></g></g></svg>