<svg xmlns="http://www.w3.org/2000/svg" viewBox="0 0 235.98 59.46"><defs><style>.cls-1{fill:#143349;}</style></defs><g id="Camada_2" data-name="Camada 2"><g id="Camada_2-2" data-name="Camada 2"><path class="cls-1" d="M14.33,44H0V43c.52,0,.65,0,1.07,0a13.07,13.07,0,0,0,1.53-.2,3.26,3.26,0,0,0,3.09-3,14.79,14.79,0,0,0,.19-3q0-14.72,0-29.44a14.92,14.92,0,0,0-.17-2.91C5.29,2.26,4.5,1.49,2.37,1.17A14.55,14.55,0,0,0,0,1V0H1.18q9.14,0,18.28,0a27.47,27.47,0,0,1,9,1.28,10.26,10.26,0,0,1,6.89,12.24c-1,3.7-3.72,4.93-7.49,2.37a2.6,2.6,0,0,1-.41-.39l.33-.34c3-3,1.9-9.29-2.94-11.66-3.76-1.84-7.67-1.76-11.65-1l-.68.13c0,1.31,0,3.47,0,4.79q0,14.27,0,28.55A14.58,14.58,0,0,0,14.33,44Z"/><path class="cls-1" d="M33.39,57.58c2.15-1.76,3.45-3.71,2.69-6.48a6.11,6.11,0,0,0-2.21-3,35.39,35.39,0,0,0-5.93-3.88c-2.37-1.29-4.73-2.6-7-4-5.94-3.57-7-9.07-5.57-13.63,1.51-4.94,6.9-8.32,12.65-8.11a34.92,34.92,0,0,1,8,1.7c.61.16,1.22.35,1.83.49,1.41.32,2,0,2.37-1.33a6,6,0,0,0,.22-.75h1.39c0,4.14,0,10.33,0,14.48H40.41a9,9,0,0,0-.2-.94c-.18-.78-.37-1.56-.55-2.34-1.51-6.67-8.42-9.08-13.61-8-2.95.61-5.16,2.19-5.74,5.33s1.11,5.49,3.61,7.12c3.37,2.18,6.88,4.14,10.32,6.21a21.94,21.94,0,0,1,5.24,3.95,8.72,8.72,0,0,1,2.36,7.36C41.27,55.57,37.83,57.94,33.39,57.58Z"/><path class="cls-1" d="M55.66,31.62H50.89V44.21h2.88v-4h1.89a4.32,4.32,0,1,0,0-8.63Zm0,5.93H53.77V34.31h1.89a1.62,1.62,0,0,1,0,3.24Z"/><path class="cls-1" d="M70.72,31.62H67.05L62.77,44.21h3.15l.63-2h4.68l.63,2H75Zm-3.31,7.91,1.48-4.62,1.47,4.62Z"/><path class="cls-1" d="M79.23,40.14V31.62h2.88v8.27c0,1,.45,1.76,2,1.76s2-.81,2-1.76V31.62H89v8.52c0,2.7-2.09,4.32-4.86,4.32S79.23,42.84,79.23,40.14Z"/><polygon class="cls-1" points="101.99 41.44 101.99 44.21 94.62 44.21 94.62 31.62 97.5 31.62 97.5 41.44 101.99 41.44"/><path class="cls-1" d="M112.14,31.36a6.55,6.55,0,1,0,6.55,6.55A6.5,6.5,0,0,0,112.14,31.36Zm0,10.29a3.74,3.74,0,1,1,3.67-3.74A3.58,3.58,0,0,1,112.14,41.65Z"/><path class="cls-1" d="M131.37,41.35l2.49-1.44a2.63,2.63,0,0,0,2.64,1.74c1.37,0,1.71-.54,1.71-1,0-.78-.72-1.08-2.61-1.6s-3.7-1.42-3.7-3.83a3.94,3.94,0,0,1,4.22-3.84,4.89,4.89,0,0,1,4.61,2.85l-2.43,1.42a2.2,2.2,0,0,0-2.18-1.46c-.9,0-1.34.45-1.34.95s.3,1,2.26,1.57,4.05,1.24,4.05,3.9c0,2.43-1.94,3.87-4.68,3.87S132.08,43.2,131.37,41.35Z"/><path class="cls-1" d="M152.82,31.62h-3.67l-4.28,12.59H148l.63-2h4.68l.62,2h3.15Zm-3.31,7.91L151,34.91l1.47,4.62Z"/><path class="cls-1" d="M160.88,41.35l2.48-1.44A2.65,2.65,0,0,0,166,41.65c1.37,0,1.71-.54,1.71-1,0-.78-.72-1.08-2.61-1.6s-3.71-1.42-3.71-3.83a3.94,3.94,0,0,1,4.23-3.84,4.89,4.89,0,0,1,4.61,2.85l-2.43,1.42a2.21,2.21,0,0,0-2.18-1.46c-.9,0-1.35.45-1.35.95s.31,1,2.27,1.57,4,1.24,4,3.9c0,2.43-1.95,3.87-4.68,3.87S161.58,43.2,160.88,41.35Z"/><path class="cls-1" d="M174.65,41.35l2.48-1.44a2.63,2.63,0,0,0,2.64,1.74c1.37,0,1.71-.54,1.71-1,0-.78-.72-1.08-2.61-1.6s-3.7-1.42-3.7-3.83a3.94,3.94,0,0,1,4.23-3.84,4.87,4.87,0,0,1,4.6,2.85l-2.43,1.42a2.2,2.2,0,0,0-2.17-1.46c-.9,0-1.35.45-1.35.95s.3,1,2.26,1.57,4.05,1.24,4.05,3.9c0,2.43-1.94,3.87-4.68,3.87S175.35,43.2,174.65,41.35Z"/><path class="cls-1" d="M196.09,31.62h-3.67l-4.28,12.59h3.15l.63-2h4.68l.63,2h3.15Zm-3.31,7.91,1.48-4.62,1.47,4.62Z"/><polygon class="cls-1" points="211.96 44.21 207.93 38.38 207.93 44.21 205.05 44.21 205.05 31.62 207.93 31.62 207.93 37.08 211.78 31.62 215.06 31.62 210.81 37.75 215.24 44.21 211.96 44.21"/><rect class="cls-1" x="219.91" y="31.62" width="2.88" height="12.59"/><path class="cls-1" d="M183.68,55.68a.34.34,0,0,0-.13-.1.18.18,0,0,0-.17,0,2.09,2.09,0,0,0-.33.17l-.33.19c-.28.14-.59.29-.93.44a3.56,3.56,0,0,1-1,.28,1.07,1.07,0,0,1,.12-.48,3.37,3.37,0,0,1,.31-.46l.35-.45a1.86,1.86,0,0,0,.28-.43.6.6,0,0,0,.07-.5.49.49,0,0,0-.34-.34.89.89,0,0,0-.51,0,2.21,2.21,0,0,0-.46.18c-.39.17-.77.34-1.16.53a12.38,12.38,0,0,0-1.14.6c.13-.2.25-.41.36-.61l.32-.61c.06-.13.12-.26.19-.39s.13-.25.21-.39c.27-.21.54-.44.8-.68l.78-.72a4.51,4.51,0,0,1,.38-.37c.14-.12.28-.26.42-.4s.26-.29.38-.44a1.87,1.87,0,0,0,.26-.48c.07-.22.07-.36,0-.44a.44.44,0,0,0-.32-.12,1.53,1.53,0,0,0-.45.08,3.36,3.36,0,0,0-.36.16,3.05,3.05,0,0,0-.86.89c-.24.36-.46.72-.66,1.07l-.65,1.17a9.93,9.93,0,0,1-1.84,1.38q-1.07.63-2.19,1.17l0,0c-.16.08-.35.17-.56.29a4,4,0,0,1-.76.3l-.75.24a5.26,5.26,0,0,1-.88.17,2.28,2.28,0,0,1-.83-.06,1.17,1.17,0,0,1-.67-.42.64.64,0,0,1-.11-.69A1.08,1.08,0,0,1,171,55a1.38,1.38,0,0,1,.47-.16,2.79,2.79,0,0,1,.5,0l.28,0a.48.48,0,0,0,.24,0,.28.28,0,0,0,.22-.11.3.3,0,0,0,.06-.2.4.4,0,0,0-.09-.2.43.43,0,0,0-.21-.14,2.48,2.48,0,0,0-.74.06,5.2,5.2,0,0,0-.72.21,1.54,1.54,0,0,0-.3.11l-.31.14c-.3.15-.59.3-.87.47a6.74,6.74,0,0,1-.89.45s0,0,0,0l-.19,0-.83.33-.83.29-.77.22a1.52,1.52,0,0,1-.81,0s0-.07,0-.19a4.19,4.19,0,0,1,.1-.42c0-.15.08-.29.13-.44a2.65,2.65,0,0,1,.11-.27l.18-.38a2,2,0,0,1,.22-.37l.48-.4.45-.39.25-.06q.87-.1,1.77-.27a11.72,11.72,0,0,0,1.72-.45.29.29,0,0,0,.2-.2.3.3,0,0,0,0-.3.23.23,0,0,0-.24-.12l-.27.08-1.78.54-1.06.25q.32-.32.6-.66c.2-.23.39-.46.57-.7s.32-.38.52-.61a1.54,1.54,0,0,0,.4-.69.35.35,0,0,0,0-.3.29.29,0,0,0-.27-.15.72.72,0,0,0-.31.11l-.3.18a6.38,6.38,0,0,0-1.32,1.41c-.39.56-.75,1.1-1.09,1.61-.22,0-.43,0-.65,0h-.65a.19.19,0,0,0-.2.16.2.2,0,0,0,.1.25.84.84,0,0,0,.52.06c.21,0,.41-.06.59-.08l-.25.44q-.55.41-1.14.75a12.75,12.75,0,0,1-1.22.63l0,0-.11,0-.26.14a.91.91,0,0,1-.2.1c-.19.09-.42.2-.69.31a6,6,0,0,1-.8.3c-.27.08-.53.15-.78.2a1.74,1.74,0,0,1-.63,0,.15.15,0,0,1-.12-.08s0-.1,0-.19a.6.6,0,0,1,.14-.22l.17-.17a.43.43,0,0,0,.12-.22.31.31,0,0,0-.11-.37.24.24,0,0,0-.35.05,3.78,3.78,0,0,1-.85.68,2.22,2.22,0,0,1-.29.17,4.12,4.12,0,0,1-.47.23,3.11,3.11,0,0,1-.49.16.39.39,0,0,1-.35,0c-.09-.07-.09-.19,0-.35a2.77,2.77,0,0,1,.34-.5c.14-.17.29-.34.44-.49a2.78,2.78,0,0,1,.32-.29l.38-.25a2.57,2.57,0,0,1,.43-.17l.81-.09a.56.56,0,0,0,.33-.19c.09-.11.06-.23-.08-.36a.77.77,0,0,0-.46-.06,7.21,7.21,0,0,0-1.36.33,3.88,3.88,0,0,0-.45.16l-.58.23-.73.31c-.26.1-.49.22-.71.33l-.5.25h0c-.63.32-1.25.63-1.86.92s-1.24.57-1.89.84c-.35.16-.7.3-1.06.43a10.09,10.09,0,0,1-1.11.31,5,5,0,0,0,1-.93q.42-.54.81-1.14c.25-.39.49-.8.72-1.2s.46-.79.7-1.15l1.4-2.22.33-.53c.12-.17.24-.35.36-.55l1.36-1.56.76-.87a1.46,1.46,0,0,0,.21-.28,1,1,0,0,0,.09-.3.29.29,0,0,0-.09-.22.37.37,0,0,0-.32,0,1.12,1.12,0,0,0-.44.21,2.4,2.4,0,0,0-.39.39c-.12.15-.23.31-.34.47l-.3.44c-.18.3-.37.59-.55.88s-.37.58-.53.86l-.47.51c-.47.5-1,1-1.45,1.43a15.35,15.35,0,0,1-1.61,1.25l-.47.33a7,7,0,0,1-.67.4,6.26,6.26,0,0,1-.73.3,1.33,1.33,0,0,1-.63.08c-.13,0-.18-.11-.14-.3a4.06,4.06,0,0,1,.27-.7q.21-.42.51-.9c.19-.33.39-.63.58-.91s.36-.53.51-.73l.27-.36c.19-.26.37-.54.55-.83a2.93,2.93,0,0,0,.38-.9,1.09,1.09,0,0,0-.11-.78.66.66,0,0,0-.7-.3,2.1,2.1,0,0,0-.69.2,4.15,4.15,0,0,0-.64.38,5.17,5.17,0,0,0-.59.48l-.54.47-1.4,1.17c-.46.4-.92.8-1.37,1.21a.24.24,0,0,0-.1.22.37.37,0,0,0,.08.22.36.36,0,0,0,.19.13.25.25,0,0,0,.24-.05,1.1,1.1,0,0,0,.31-.33,2.82,2.82,0,0,1,.28-.36l.58-.59c.39-.38.81-.76,1.26-1.13a8.76,8.76,0,0,1,1.4-1l.22-.12.38-.19a2.87,2.87,0,0,1,.38-.13c.12,0,.18,0,.21.06a.58.58,0,0,1,0,.37,3.52,3.52,0,0,1-.15.42l-.21.41c-.07.14-.13.24-.18.33a16.28,16.28,0,0,1-.91,1.42,13,13,0,0,0-.91,1.44c-.09.17-.2.38-.32.65a2.8,2.8,0,0,0-.23.79,1,1,0,0,0,.13.64c.11.17.36.24.75.2a2.19,2.19,0,0,0,.74-.19,4.84,4.84,0,0,0,.72-.36,5,5,0,0,0,.68-.45l.61-.47q.54-.44,1.05-.9c.34-.31.68-.64,1-1-.19.31-.39.62-.6.94s-.42.64-.62,1-.43.7-.64,1.07a12.8,12.8,0,0,1-.69,1.11,8.76,8.76,0,0,1-.8,1,4.4,4.4,0,0,1-1,.8,2.23,2.23,0,0,1-.92.28,2.67,2.67,0,0,1-.93-.08,3.85,3.85,0,0,1-.91-.34,8.77,8.77,0,0,1-.84-.49l-.19-.14-.27-.2-.28-.2a.54.54,0,0,0-.16-.09,1.08,1.08,0,0,0-.37-.09c-.1,0-.15.09-.15.29a.54.54,0,0,0,.15.33,2.1,2.1,0,0,0,.34.32,3.6,3.6,0,0,0,.4.28l.32.2a4.91,4.91,0,0,0,1.85.76,5.7,5.7,0,0,0,2,0,9.5,9.5,0,0,0,1.92-.59l1.87-.81,2-1,.76-.34,0,0,.71-.35.74-.37.63-.31.4-.16a2.87,2.87,0,0,0-.5.38,4.28,4.28,0,0,0-.49.55,3.9,3.9,0,0,0-.37.57,1.05,1.05,0,0,0-.15.46.6.6,0,0,0,.27.51,1,1,0,0,0,.58.14,1.74,1.74,0,0,0,.69-.22l.64-.37.49-.29a.88.88,0,0,0,0,.48c0,.15.15.26.36.35a1,1,0,0,0,.51.05,2.57,2.57,0,0,0,.55-.12,4.77,4.77,0,0,0,.52-.22c.17-.08.32-.16.47-.22l.63-.28.61-.27a1,1,0,0,1,.22-.09l.28-.12a1.12,1.12,0,0,0,.16-.1,15.57,15.57,0,0,0,1.68-1c-.17.31-.31.6-.44.87a1.48,1.48,0,0,0-.15.82.51.51,0,0,0,.38.49,1.73,1.73,0,0,0,.71,0,6.35,6.35,0,0,0,.77-.26l.6-.25,1.28-.47a2,2,0,0,1,.33-.12.29.29,0,0,0,.08,0,.35.35,0,0,0,.3-.08l.26-.18.39-.21c.12-.09.25-.16.38-.24v0a1.2,1.2,0,0,0-.1.75,1.35,1.35,0,0,0,.32.6,1.68,1.68,0,0,0,.57.4,1.61,1.61,0,0,0,.72.12,4.73,4.73,0,0,0,1.66-.3c.54-.21,1.05-.43,1.55-.67l.33-.11a.47.47,0,0,0,.18-.12l.14-.06.6-.32.6-.36c.34-.2.67-.41,1-.63s.66-.45,1-.7a14,14,0,0,1-.8,1.26,9.59,9.59,0,0,1-1,1.15.46.46,0,0,0-.11.22.3.3,0,0,0,.13.25.3.3,0,0,0,.26.07.44.44,0,0,0,.2-.13l.35-.29a7.82,7.82,0,0,1,.81-.62c.24-.16.48-.31.72-.44s.51-.27.77-.39l.3-.11.35-.13a1.54,1.54,0,0,1,.35-.1.84.84,0,0,1,.31,0,1.38,1.38,0,0,1-.22.59q-.19.28-.39.54l-.21.29a2.79,2.79,0,0,0-.19.33.76.76,0,0,0-.09.35.52.52,0,0,0,.11.35.55.55,0,0,0,.39.21,1.16,1.16,0,0,0,.45,0,2.48,2.48,0,0,0,.44-.2l.38-.22q.39-.23.81-.42t.81-.42a.18.18,0,0,0,.11-.15A.19.19,0,0,0,183.68,55.68Z"/><path class="cls-1" d="M199,54a3.21,3.21,0,0,0-1.5-.26,11.36,11.36,0,0,0-1.63.21c.54-.24,1.07-.49,1.6-.76s1-.55,1.53-.86c.22-.12.47-.27.75-.46a5.28,5.28,0,0,0,.77-.63,2.38,2.38,0,0,0,.53-.76,1.1,1.1,0,0,0,0-.87,1.66,1.66,0,0,0-.61-.74,2.34,2.34,0,0,0-.88-.36,3.93,3.93,0,0,0-1-.09c-.33,0-.65.05-.95.09l.32-.25a3.87,3.87,0,0,1,.37-.24,1.54,1.54,0,0,1,.37-.14.56.56,0,0,1,.34,0,.32.32,0,0,0,.27,0,.28.28,0,0,0,.17-.18c0-.15,0-.27-.06-.33a.54.54,0,0,0-.31-.12,1.82,1.82,0,0,0-.4,0,2.13,2.13,0,0,0-.31.07,2.47,2.47,0,0,0-.8.49,8.79,8.79,0,0,0-.7.66l-.18.22a13,13,0,0,0-1.36.5c-.45.19-.88.4-1.3.61-.6.32-1.19.65-1.78,1a13.45,13.45,0,0,0-1.66,1.23.33.33,0,0,0-.08.34.29.29,0,0,0,.28.22.34.34,0,0,0,.26-.08,1.86,1.86,0,0,0,.26-.23l.25-.27a1.37,1.37,0,0,1,.2-.21A12.39,12.39,0,0,1,193,51a11.6,11.6,0,0,1,1.29-.73c.27-.14.57-.29.88-.43s.63-.28,1-.42c-.3.39-.58.79-.85,1.2s-.52.83-.77,1.25-.51.87-.75,1.31-.45.9-.65,1.37l-.24,0-.33.08a1.29,1.29,0,0,0-.35.1,1.06,1.06,0,0,0-.28.15.26.26,0,0,0-.12.21c0,.15,0,.24.12.28a.51.51,0,0,0,.33,0h0l.27-.08.25-.1-.09.27c-.13.35-.26.76-.4,1.22a4.48,4.48,0,0,0-.19,1.39h-.32c-.36,0-.72,0-1.08,0a3.77,3.77,0,0,1-1.05-.21l-.25-.14a3.07,3.07,0,0,0-.31-.16.4.4,0,0,0-.28,0c-.09,0-.13.12-.13.28a.42.42,0,0,0,.17.33,1.29,1.29,0,0,0,.42.22l.48.12.39,0a6.41,6.41,0,0,0,1,.07c.36,0,.69,0,1,0,0,.13.08.26.13.38a1.32,1.32,0,0,0,.2.34.37.37,0,0,0,.28.17.55.55,0,0,0,.26-.06.28.28,0,0,0,.12-.2A.29.29,0,0,0,193,59a1,1,0,0,1-.27-.42,19,19,0,0,0,3.18-.59,18.54,18.54,0,0,0,1.82-.55,4.14,4.14,0,0,0,1.6-1,1.7,1.7,0,0,0,.4-.62,1.52,1.52,0,0,0,.11-.69,1.36,1.36,0,0,0-.22-.64A1.24,1.24,0,0,0,199,54Zm-5.18-.14.27-.51a17.91,17.91,0,0,1,1-1.75c.37-.57.76-1.12,1.18-1.66a3,3,0,0,1,.31-.39,3.92,3.92,0,0,1,.34-.37,5.82,5.82,0,0,1,1.38-.2,3.31,3.31,0,0,1,1.33.24,1.46,1.46,0,0,1,.28.14,1.94,1.94,0,0,1,.29.21,1.09,1.09,0,0,1,.22.26.52.52,0,0,1,.06.3,1.08,1.08,0,0,1-.28.59,5.17,5.17,0,0,1-.46.47,7.71,7.71,0,0,1-1.07.81,12.38,12.38,0,0,1-1.18.67c-.62.32-1.26.63-1.91.92s-1.32.54-2,.77C193.68,54.17,193.76,54,193.84,53.84Zm5.26,1.87a2.18,2.18,0,0,1-.6.65,4.49,4.49,0,0,1-.82.5,6.66,6.66,0,0,1-.91.37l-.86.26a11.11,11.11,0,0,1-1.61.39c-.55.1-1.09.17-1.65.22a2.2,2.2,0,0,1,.06-.75,5.81,5.81,0,0,1,.21-1.19A9.67,9.67,0,0,1,193.3,55h0l.79-.31a13.77,13.77,0,0,1,1.53-.3c.52-.06,1-.11,1.51-.13.19,0,.44,0,.73,0a3.12,3.12,0,0,1,.8.21,1,1,0,0,1,.52.43A.74.74,0,0,1,199.1,55.71Z"/><path class="cls-1" d="M235.9,55.57h-.18l-.21.09a.57.57,0,0,1-.16.08l-.46.23-.44.21c-.43.16-.78.28-1,.36s-.41.07-.47,0a.43.43,0,0,1-.14-.35,2,2,0,0,1,.09-.45,4.43,4.43,0,0,1,.2-.45c.08-.15.15-.28.21-.37a.44.44,0,0,0,.07-.44c-.06-.11-.2-.14-.41-.07a4.64,4.64,0,0,1-.74.37,1.64,1.64,0,0,1-.79.14.59.59,0,0,1-.31-.08,1.09,1.09,0,0,0,.38-.36.43.43,0,0,0,.07-.41.37.37,0,0,0-.32-.25.69.69,0,0,0-.62.29.81.81,0,0,0-.21.64l-.8.45-.75.4-.06,0-.24.12-.37.17c-.27.12-.54.23-.81.32a8.15,8.15,0,0,1-.85.22,4.45,4.45,0,0,1-.67.07,1.87,1.87,0,0,1-.71-.08,1.56,1.56,0,0,1-.6-.31,1.09,1.09,0,0,1-.32-.61h.07a2.33,2.33,0,0,0,.79-.07,2.59,2.59,0,0,0,.71-.29l.27-.17a2.33,2.33,0,0,0,.35-.27.75.75,0,0,0,.21-.3.3.3,0,0,0-.06-.31.75.75,0,0,0-.51-.27,2.18,2.18,0,0,0-1.51.35,1.87,1.87,0,0,0-.66.68,5.12,5.12,0,0,0-.71.34l-.63.34a.31.31,0,0,0-.18.05l-.23.15a9.23,9.23,0,0,1-1.15.53,5.77,5.77,0,0,1-1.22.32,1.45,1.45,0,0,1-.9-.16,2.39,2.39,0,0,1-.72-.58,4.65,4.65,0,0,0,1.32-.2,3.12,3.12,0,0,0,1.16-.63,2.2,2.2,0,0,0,.2-.23.76.76,0,0,0,.12-.26.39.39,0,0,0,0-.26.36.36,0,0,0-.19-.22,1.06,1.06,0,0,0-.61-.14,2.15,2.15,0,0,0-.65.17,4,4,0,0,0-.62.31l-.54.32c-.13.08-.25.15-.37.24l-.36.25,1.08-2.12.39-.35.4-.37.64-.61.62-.62.23-.24a2.91,2.91,0,0,0,.24-.27,1.15,1.15,0,0,0,.2-.29.71.71,0,0,0,.1-.31.33.33,0,0,0-.07-.27.43.43,0,0,0-.22-.12.84.84,0,0,0-.28,0,1,1,0,0,0-.26.08,1.83,1.83,0,0,0-.62.45,6.62,6.62,0,0,0-.47.61c-.23.32-.44.66-.64,1s-.39.7-.57,1.05l-.31.27c-.57.47-1.17.92-1.79,1.35a15.59,15.59,0,0,1-1.93,1.15l0,0-.19.06-.37.17a1.16,1.16,0,0,1-.27.11,3.27,3.27,0,0,1-.65.11,1.11,1.11,0,0,1-.63-.17,1,1,0,0,1-.21-.18,1.94,1.94,0,0,0,.27-.63.56.56,0,0,0-.16-.55.38.38,0,0,0-.26-.08.26.26,0,0,0-.1-.28.63.63,0,0,0-.52-.07,2.07,2.07,0,0,0-.53.19l-.74.22a6,6,0,0,0-.75.25l-1.81.78h0l-.2.09a.59.59,0,0,1-.17.08l-.46.23a4.39,4.39,0,0,1-.44.21c-.43.16-.77.28-1,.36s-.42.07-.48,0a.43.43,0,0,1-.13-.35,1.29,1.29,0,0,1,.09-.45,5.91,5.91,0,0,1,.4-.82.44.44,0,0,0,.07-.44c-.06-.11-.19-.14-.41-.07a4.26,4.26,0,0,1-.74.37,1.62,1.62,0,0,1-.79.14.56.56,0,0,1-.3-.08,1.06,1.06,0,0,0,.37-.36.44.44,0,0,0,.08-.41.37.37,0,0,0-.33-.25.7.7,0,0,0-.62.29.89.89,0,0,0-.21.64c-.28.17-.55.32-.8.45s-.49.27-.74.4a.18.18,0,0,0-.11.18.22.22,0,0,0,.11.2c.07.05.15,0,.25,0a1,1,0,0,1,.25-.13l.33-.2.41-.24.5-.27a.61.61,0,0,0,.44.24,3.2,3.2,0,0,0,.62,0,3.7,3.7,0,0,0,.61-.1l.36-.09-.14.59c0,.1-.05.2-.08.3s0,.2-.07.3a1.09,1.09,0,0,0,0,.31.57.57,0,0,0,.11.28.49.49,0,0,0,.45.23,1.78,1.78,0,0,0,.59-.1,6.46,6.46,0,0,0,.6-.27l.5-.27.75-.35.17,0a.72.72,0,0,0,.2-.09l.06,0h.05l.21-.09.21-.11.18-.1.8-.38a7.18,7.18,0,0,1,.81-.32l-.35.34a3.71,3.71,0,0,0-.37.45,1.94,1.94,0,0,0-.31.56.85.85,0,0,0,0,.54.66.66,0,0,0,.42.43,1.25,1.25,0,0,0,.61.09,2.19,2.19,0,0,0,.62-.17,2.77,2.77,0,0,0,.57-.34,5.05,5.05,0,0,0,.48-.39l.4-.42a1,1,0,0,0,.47.28,1.7,1.7,0,0,0,.55.08,2.94,2.94,0,0,0,.59-.05,4.75,4.75,0,0,0,.57-.14l.21-.08.32-.11a1.25,1.25,0,0,0,.12-.08.48.48,0,0,0,.16-.08l.24-.18c.29-.16.56-.33.82-.49s.52-.33.78-.51l.69-.5.68-.51-.18.31c-.16.26-.31.52-.46.79s-.31.52-.49.79l-.58.81a1.51,1.51,0,0,0-.12.2.2.2,0,0,0,0,.21c.06.21.14.29.24.26a.72.72,0,0,0,.3-.19l.15-.16a.91.91,0,0,0,.11-.16l.31-.36c.11-.12.22-.23.34-.34.1.14.2.29.32.43a2.79,2.79,0,0,0,.37.4,1.67,1.67,0,0,0,.77.45,1.92,1.92,0,0,0,.79,0,2.85,2.85,0,0,0,.79-.23l.8-.38.5-.24c.17-.08.33-.17.5-.27l.14-.06.07,0a.26.26,0,0,0,.17,0,1.51,1.51,0,0,1,.24-.13l.33-.21a2.93,2.93,0,0,1,.39-.21.5.5,0,0,0,0,.27l.06.29a1.43,1.43,0,0,0,.36.65,1.78,1.78,0,0,0,.57.38,2.19,2.19,0,0,0,.68.17,3,3,0,0,0,.73,0,13.65,13.65,0,0,0,1.64-.54l.9-.39.28-.11a.43.43,0,0,0,.19-.13.89.89,0,0,1,.24-.12l.33-.2.4-.24.51-.27a.59.59,0,0,0,.44.24,3.18,3.18,0,0,0,.62,0,3.76,3.76,0,0,0,.6-.1l.37-.09-.14.59c0,.1-.06.2-.08.3a1.67,1.67,0,0,0-.08.3,1.63,1.63,0,0,0,0,.31.69.69,0,0,0,.11.28.51.51,0,0,0,.45.23,1.89,1.89,0,0,0,.6-.1l.6-.27.49-.27.76-.35.16,0a1,1,0,0,0,.21-.09l.18-.13a.21.21,0,0,0,.08-.16C236,55.65,236,55.59,235.9,55.57Zm-11.32-.82a1.25,1.25,0,0,1,.37-.28,1.7,1.7,0,0,1,.45-.15,1.09,1.09,0,0,1,.5.06,2.76,2.76,0,0,1-.71.5,2.28,2.28,0,0,1-.84.22A1.06,1.06,0,0,1,224.58,54.75Zm-4.7-3.62a2.92,2.92,0,0,1,.81-.69,3.35,3.35,0,0,1-.43.58c-.17.19-.32.36-.47.51l-.54.54A5.93,5.93,0,0,1,219.88,51.13Zm-8.45,4.6a1.46,1.46,0,0,1-.21.28l-.27.27a1.77,1.77,0,0,1-.77.42,2.21,2.21,0,0,1-.89,0c-.17,0-.24-.1-.22-.22a1,1,0,0,1,.17-.41,2.47,2.47,0,0,1,.33-.41l.26-.27a3.18,3.18,0,0,1,.73-.45,2.83,2.83,0,0,1,.91-.22.77.77,0,0,0-.14.47A1.71,1.71,0,0,0,211.43,55.73Zm6.83-.4.39-.23.46-.25a3,3,0,0,1,.4-.15l.31-.08a1.32,1.32,0,0,1,.33,0,2.58,2.58,0,0,1-.87.64,2.94,2.94,0,0,1-1.07.25h-.16Z"/></g></g></svg>